<?xml version="1.0" encoding="utf-8"?>
<!-- Generator: Adobe Illustrator 23.0.1, SVG Export Plug-In . SVG Version: 6.00 Build 0)  -->
<svg version="1.1" id="Layer_1" xmlns="http://www.w3.org/2000/svg" xmlns:xlink="http://www.w3.org/1999/xlink" x="0px" y="0px"
	 viewBox="0 0 1920 332" style="enable-background:new 0 0 1920 332;" xml:space="preserve">
<style type="text/css">
	.st0{fill:#FFEC00;}
	.st1{display:none;}
	.st2{display:inline;}
</style>
<g id="Original">
	<g>
		<g id="J__-__A__x28_1_x29__2_">
			<g>
				<g>
					<path d="M0,332.2v-45.1h109c32.5,0,45-14.2,45-45.1V-0.2h50v247c0,61.8-25,85.5-90,85.5L0,332.2L0,332.2z"/>
				</g>
				<g>
					<path d="M1836.5,246.8H1710l-26,85.5h-50.5L1741-0.2h65l107.5,332.5h-50L1836.5,246.8z M1773,42.5l-49.5,161.4h100L1773,42.5z"
						/>
				</g>
			</g>
		</g>
		<g id="J__-_A__x28_2_x29__2_">
			<g>
				<g>
					<polygon class="st0" points="1011.5,145.9 972.5,145.9 972.5,82.7 906.6,186.1 945.7,186.1 945.7,249.4 					"/>
				</g>
			</g>
		</g>
	</g>
</g>
<g id="Original_copy" class="st1">
	<g class="st2">
		<g id="J__-_A__x28_2_x29__1_">
			<g>
				<g>
					<polygon points="1011.5,145.9 972.5,145.9 972.5,82.7 906.6,186.1 945.7,186.1 945.7,249.4 					"/>
				</g>
			</g>
		</g>
	</g>
	<g id="Favorit_Medium" class="st2">
		<g>
			<g>
				<path d="M0,332v-54.4h112.4c25.1,0,34.5-9,34.5-34.5V1h56.7v257.7c0,47.3-26,73.3-73.8,73.3H0z"/>
			</g>
		</g>
		<g>
			<path d="M1722.8,1h68.6L1920,332h-59.6l-31.2-80.9h-147.1L1651,332h-59.1L1722.8,1z M1755.5,60.1l-53.9,140h107.8L1755.5,60.1z"
				/>
		</g>
	</g>
</g>
</svg>
