<?xml version="1.0" encoding="utf-8"?>
<!-- Generator: Adobe Illustrator 23.0.1, SVG Export Plug-In . SVG Version: 6.00 Build 0)  -->
<svg version="1.1" xmlns="http://www.w3.org/2000/svg" xmlns:xlink="http://www.w3.org/1999/xlink" x="0px" y="0px"
	 viewBox="0 0 774.5 233.7" style="enable-background:new 0 0 774.5 233.7;" xml:space="preserve">
<style type="text/css">
	.st0{fill:#FF4C22;}
</style>
<g id="Layer_1">
</g>
<g id="Layer_2">
	<g>
		<g>
			<g>
				<g>
					<path class="st0" d="M34,223.2c-10.2-0.2-18.4-3.4-24.7-9.5C3.1,207.6,0,199.4,0,189.2c0-10.2,3.1-18.4,9.4-24.7
						c6.2-6.2,14.5-9.4,24.7-9.4s18.4,3.1,24.7,9.4c6.2,6.2,9.4,14.5,9.4,24.7c0,10.2-3.1,18.4-9.4,24.7
						C52.4,220.1,44.2,223.2,34,223.2z M168,78.5c-10.2-0.2-18.4-3.4-24.7-9.5c-6.2-6.1-9.4-14.3-9.4-24.5c0-10.2,3.1-18.4,9.4-24.7
						c6.2-6.2,14.5-9.4,24.7-9.4c10.2,0,18.4,3.1,24.7,9.4c6.2,6.2,9.4,14.5,9.4,24.7c0,10.2-3.1,18.4-9.4,24.7
						C186.5,75.4,178.2,78.5,168,78.5z M168,223.2c-10.2-0.2-18.4-3.4-24.7-9.5c-6.2-6.1-9.4-14.3-9.4-24.5
						c0-10.2,3.1-18.4,9.4-24.7c6.2-6.2,14.5-9.4,24.7-9.4c10.2,0,18.4,3.1,24.7,9.4c6.2,6.2,9.4,14.5,9.4,24.7
						c0,10.2-3.1,18.4-9.4,24.7C186.5,220.1,178.2,223.2,168,223.2z"/>
				</g>
				<path class="st0" d="M704.9,11c-4.9,0-10.7,0.3-17.3,0.9c-6.7,0.6-13.8,1.7-21.4,3.4c-7.6,1.7-15.1,4.3-22.6,7.8
					c-7.5,3.5-14.6,8-21.4,13.4s-12.6,12.4-17.3,20.7c-1.1,1.8-2.3,3.7-3.4,5.6c-1.1,1.9-2.3,3.8-3.4,5.6l-89.1,154.5h58.5
					l39.2-67.6c5.8-10.1,11.1-19.2,15.8-27.2c4.8-8,8.7-14.8,11.9-20.2c3.2-5.4,5.1-8.7,5.8-9.9c3.9-5.7,7.3-11,10.2-16
					c2.9-5,7-9.4,12.2-13.3c5.2-3.9,12.2-6.9,20.9-9c8.7-2.2,20.8-3.2,36.2-3.2v121.8H615v44.2h159.5V11H704.9z"/>
			</g>
		</g>
		<g id="J__-_A__x28_2_x29__2_">
			<g>
				<g>
					<polygon class="st0" points="451.4,123.3 408.8,110.1 430.2,41 323,131.8 365.8,145.1 344.4,214.3 					"/>
				</g>
			</g>
		</g>
	</g>
</g>
</svg>
