<?xml version="1.0" encoding="utf-8"?>
<!-- Generator: Adobe Illustrator 23.0.1, SVG Export Plug-In . SVG Version: 6.00 Build 0)  -->
<svg version="1.1" xmlns="http://www.w3.org/2000/svg" xmlns:xlink="http://www.w3.org/1999/xlink" x="0px" y="0px"
	 viewBox="0 0 800 728" style="enable-background:new 0 0 800 728;" xml:space="preserve">
<style type="text/css">
	.st0{fill:#FF4C22;}
</style>
<g id="Layer_1">
	<text transform="matrix(1 0 0 1 -669.1978 661.3994)" style="font-family:'Supreme'; font-size:200px; letter-spacing:100;">Ja</text>
	<g>
		<g id="Holder_1_">
			<path class="st0" d="M400,33.7c30.8,0,58.1,16.1,73.1,43.1l273.5,493.5c7.5,13.5,11.1,27.9,10.6,42.8c-0.4,14-4.5,27.8-11.7,40.1
				c-7.2,12.3-17.4,22.5-29.4,29.7c-12.8,7.6-27.2,11.5-42.6,11.5h-547c-15.4,0-29.8-3.9-42.6-11.5c-12-7.1-22.2-17.4-29.4-29.7
				c-7.2-12.3-11.3-26.1-11.7-40.1c-0.5-14.9,3.1-29.3,10.6-42.8L326.9,76.7C341.9,49.8,369.2,33.7,400,33.7 M400,3.7
				c-38.9,0-77.7,19.5-99.3,58.5L27.2,555.7c-41.9,75.7,12.8,168.6,99.3,168.6h547c86.5,0,141.3-92.9,99.3-168.6L499.3,62.2
				C477.7,23.2,438.9,3.7,400,3.7L400,3.7z"/>
		</g>
		<g>
			<g id="Bolt_1_">
				<g>
					<g>
						<path class="st0" d="M485.4,203.7H442c-7.6,0-13.7-6.1-13.7-13.7v-72.3c0-13.7-17.9-18.9-25.2-7.3l-100,157
							c-5.8,9.1,0.7,21,11.5,21h43.6c7.6,0,13.7,6.1,13.7,13.7v72.2c0,13.7,17.9,18.9,25.2,7.3l99.8-157
							C502.7,215.7,496.2,203.7,485.4,203.7z"/>
					</g>
				</g>
			</g>
			<g>
				<path class="st0" d="M331.2,498.9h-5c-11,0-20.9,6.9-24.6,17.3l-19.7,54.7c-1.5,3.9-4.6,7.2-9.2,10c-5.2,3-11,4.5-17.3,4.5
					H143.9c-11.1,0-21,7-24.7,17.5c-6,17,6.7,34.8,24.7,34.8H281c25.4,0,41.9-10.8,49.6-32.3l25.3-71.6
					C361.9,516.8,349.2,498.9,331.2,498.9z"/>
				<path class="st0" d="M596.7,417.2h-87.5c-11.4,0-21.6,7.2-25.4,18v0c-5.9,16.8,6.6,34.3,24.3,34.3h39.3c8.4,0,12.5,3.2,12.5,9.6
					c0,1.5-0.3,3-0.8,4.7l-3.3,10.3c-0.5,1.6-2,2.6-3.6,2.6H411.9c-17.8,0-29.6,8.4-35.4,25.1l-23.9,68.9c-1.9,5-2.8,10.5-2.8,16.5
					c0,8.7,2,16,6.1,21.8c5,6.7,12.6,10,22.8,10h162c14.9,0,28.1-9.4,33.1-23.4l54.4-154.2c0.2-0.6,0.4-1.3,0.6-1.9
					C635.3,438.4,618.8,417.2,596.7,417.2z M523.5,586.8h-95.2c-6.3,0-9.5-3.1-9.5-9.3c0-2.1,0.4-4.3,1.1-6.8l3.6-9.6
					c2.8-7.9,8.5-11.9,17.3-11.9h95.8L523.5,586.8z"/>
				<circle class="st0" cx="328.9" cy="443.4" r="26.4"/>
				<circle class="st0" cx="449.9" cy="443.4" r="26.4"/>
				<circle class="st0" cx="389.4" cy="443.4" r="26.4"/>
			</g>
		</g>
	</g>
</g>
<g id="Layer_2">
	<g>
		<g>
			<g>
				<g>
					<path class="st0" d="M896.8,460.9c-10.2-0.2-18.4-3.4-24.7-9.5c-6.2-6.1-9.4-14.3-9.4-24.5c0-10.2,3.1-18.4,9.4-24.7
						c6.2-6.2,14.5-9.4,24.7-9.4s18.4,3.1,24.7,9.4c6.2,6.2,9.4,14.5,9.4,24.7c0,10.2-3.1,18.4-9.4,24.7
						C915.2,457.7,907,460.9,896.8,460.9z M1030.8,316.2c-10.2-0.2-18.4-3.4-24.7-9.5c-6.2-6.1-9.4-14.3-9.4-24.5
						c0-10.2,3.1-18.4,9.4-24.7c6.2-6.2,14.5-9.4,24.7-9.4c10.2,0,18.4,3.1,24.7,9.4c6.2,6.2,9.4,14.5,9.4,24.7
						c0,10.2-3.1,18.4-9.4,24.7C1049.2,313.1,1041,316.2,1030.8,316.2z M1030.8,460.9c-10.2-0.2-18.4-3.4-24.7-9.5
						c-6.2-6.1-9.4-14.3-9.4-24.5c0-10.2,3.1-18.4,9.4-24.7c6.2-6.2,14.5-9.4,24.7-9.4c10.2,0,18.4,3.1,24.7,9.4
						c6.2,6.2,9.4,14.5,9.4,24.7c0,10.2-3.1,18.4-9.4,24.7C1049.2,457.7,1041,460.9,1030.8,460.9z"/>
				</g>
				<path class="st0" d="M1567.7,248.6c-4.9,0-10.7,0.3-17.3,0.9c-6.7,0.6-13.8,1.7-21.4,3.4c-7.6,1.7-15.1,4.3-22.6,7.8
					c-7.5,3.5-14.6,8-21.4,13.4c-6.8,5.4-12.6,12.4-17.3,20.7c-1.1,1.8-2.3,3.7-3.4,5.6c-1.1,1.9-2.3,3.8-3.4,5.6l-89.1,154.5h58.5
					l39.2-67.6c5.8-10.1,11.1-19.2,15.8-27.2c4.8-8,8.7-14.8,11.9-20.2c3.2-5.4,5.1-8.7,5.8-9.9c3.9-5.7,7.3-11,10.2-16
					c2.9-5,7-9.4,12.2-13.3c5.2-3.9,12.2-6.9,20.9-9c8.7-2.2,20.8-3.2,36.2-3.2v121.8h-104.8v44.2h159.5V248.6H1567.7z"/>
			</g>
		</g>
		<g id="J__-_A__x28_2_x29__2_">
			<g>
				<g>
					<polygon class="st0" points="1314.2,361 1271.5,347.8 1292.9,278.6 1185.8,369.5 1228.6,382.7 1207.2,452 					"/>
				</g>
			</g>
		</g>
	</g>
</g>
</svg>
